<?xml version="1.0" encoding="UTF-8"?>
<svg xmlns="http://www.w3.org/2000/svg" width="1536" height="2048" viewBox="0 0 1536 2048">
  <defs>
    <linearGradient id="g" x1="0" x2="1" y1="0" y2="1">
      <stop offset="0%" stop-color="#0f172a" />
      <stop offset="100%" stop-color="#061014" />
    </linearGradient>
  </defs>
  <rect width="100%" height="100%" fill="url(#g)" />

  <!-- Large centered icon -->
  <g transform="translate(512,416) scale(1.6)">
    <rect x="-256" y="-256" width="512" height="512" rx="64" fill="#0b1220" />
    <!-- inner grid -->
    <g transform="translate(-192,-192)">
      <rect x="0" y="0" width="128" height="128" rx="12" fill="#06b6d4" />
      <rect x="140" y="0" width="128" height="128" rx="12" fill="#ffd166" />
      <rect x="280" y="0" width="128" height="128" rx="12" fill="#ef476f" />

      <rect x="0" y="140" width="128" height="128" rx="12" fill="#118ab2" />
      <rect x="140" y="140" width="128" height="128" rx="12" fill="#8bd3dd" />
      <rect x="280" y="140" width="128" height="128" rx="12" fill="#ffd166" />

      <rect x="0" y="280" width="128" height="128" rx="12" fill="#ef476f" />
      <rect x="140" y="280" width="128" height="128" rx="12" fill="#06b6d4" />
      <rect x="280" y="280" width="128" height="128" rx="12" fill="#071133" />
    </g>
  </g>

  <text x="50%" y="84%" font-family="Inter, Roboto, Arial, sans-serif" font-size="44" fill="#9fb3c8" text-anchor="middle">Sliding Puzzle</text>
</svg>
